<!-- <svg xmlns="http://www.w3.org/2000/svg" viewBox="0 0 24 24"> <g> <path fill="none" d="M0 0h24v24H0z"/> <path d="M19 22H5a3 3 0 0 1-3-3V3a1 1 0 0 1 1-1h14a1 1 0 0 1 1 1v12h4v4a3 3 0 0 1-3 3zm-1-5v2a1 1 0 0 0 2 0v-2h-2zm-2 3V4H4v15a1 1 0 0 0 1 1h11zM6 7h8v2H6V7zm0 4h8v2H6v-2zm0 4h5v2H6v-2z"/> </g> </svg> -->



<svg version="1" xmlns="http://www.w3.org/2000/svg" viewBox="0 0 48 48" enable-background="new 0 0 48 48">
    <g fill="#3F51B5">
        <polygon points="17.8,18.1 10.4,25.4 6.2,21.3 4,23.5 10.4,29.9 20,20.3"/>
        <polygon points="17.8,5.1 10.4,12.4 6.2,8.3 4,10.5 10.4,16.9 20,7.3"/>
        <polygon points="17.8,31.1 10.4,38.4 6.2,34.3 4,36.5 10.4,42.9 20,33.3"/>
    </g>
    <g fill="#90CAF9">
        <rect x="24" y="22" width="20" height="4"/>
        <rect x="24" y="9" width="20" height="4"/>
        <rect x="24" y="35" width="20" height="4"/>
    </g>
</svg>